<?xml version="1.0" encoding="utf-8"?>
<!-- Generator: Adobe Illustrator 18.1.1, SVG Export Plug-In . SVG Version: 6.00 Build 0)  -->
<svg version="1.1" id="Layer_1" xmlns="http://www.w3.org/2000/svg" xmlns:xlink="http://www.w3.org/1999/xlink" x="0px" y="0px"
	 viewBox="0 0 1020 520" enable-background="new 0 0 1020 520" xml:space="preserve">
<rect x="10" y="10" fill="#E4E4E4" stroke="#6F6F6F" stroke-miterlimit="10" width="200" height="50"/>
<rect x="10" y="60" fill="#F8F8F7" stroke="#6F6F6F" stroke-miterlimit="10" width="200" height="50"/>
<rect x="10" y="110" fill="#E4E4E4" stroke="#6F6F6F" stroke-miterlimit="10" width="200" height="50"/>
<rect x="10" y="160" fill="#F8F8F7" stroke="#6F6F6F" stroke-miterlimit="10" width="200" height="50"/>
<rect x="10" y="210" fill="#E4E4E4" stroke="#6F6F6F" stroke-miterlimit="10" width="200" height="50"/>
<rect x="10" y="260" fill="#F8F8F7" stroke="#6F6F6F" stroke-miterlimit="10" width="200" height="50"/>
<rect x="10" y="310" fill="#E4E4E4" stroke="#6F6F6F" stroke-miterlimit="10" width="200" height="50"/>
<rect x="10" y="360" fill="#F8F8F7" stroke="#6F6F6F" stroke-miterlimit="10" width="200" height="50"/>
<rect x="10" y="410" fill="#E4E4E4" stroke="#6F6F6F" stroke-miterlimit="10" width="200" height="50"/>
<rect x="10" y="460" fill="#F8F8F7" stroke="#6F6F6F" stroke-miterlimit="10" width="200" height="50"/>
<rect x="210" y="10" fill="#E4E4E4" stroke="#6F6F6F" stroke-miterlimit="10" width="200" height="50"/>
<rect x="210" y="60" fill="#F8F8F7" stroke="#6F6F6F" stroke-miterlimit="10" width="200" height="50"/>
<rect x="210" y="110" fill="#E4E4E4" stroke="#6F6F6F" stroke-miterlimit="10" width="200" height="50"/>
<rect x="210" y="160" fill="#F8F8F7" stroke="#6F6F6F" stroke-miterlimit="10" width="200" height="50"/>
<rect x="210" y="210" fill="#E4E4E4" stroke="#6F6F6F" stroke-miterlimit="10" width="200" height="50"/>
<rect x="210" y="260" fill="#F8F8F7" stroke="#6F6F6F" stroke-miterlimit="10" width="200" height="50"/>
<rect x="210" y="310" fill="#E4E4E4" stroke="#6F6F6F" stroke-miterlimit="10" width="200" height="50"/>
<rect x="210" y="360" fill="#F8F8F7" stroke="#6F6F6F" stroke-miterlimit="10" width="200" height="50"/>
<rect x="210" y="410" fill="#E4E4E4" stroke="#6F6F6F" stroke-miterlimit="10" width="200" height="50"/>
<rect x="210" y="460" fill="#F8F8F7" stroke="#6F6F6F" stroke-miterlimit="10" width="200" height="50"/>
<rect x="410" y="10" fill="#E4E4E4" stroke="#6F6F6F" stroke-miterlimit="10" width="200" height="50"/>
<rect x="410" y="60" fill="#F8F8F7" stroke="#6F6F6F" stroke-miterlimit="10" width="200" height="50"/>
<rect x="410" y="110" fill="#E4E4E4" stroke="#6F6F6F" stroke-miterlimit="10" width="200" height="50"/>
<rect x="410" y="160" fill="#F8F8F7" stroke="#6F6F6F" stroke-miterlimit="10" width="200" height="50"/>
<rect x="410" y="210" fill="#E4E4E4" stroke="#6F6F6F" stroke-miterlimit="10" width="200" height="50"/>
<rect x="410" y="260" fill="#F8F8F7" stroke="#6F6F6F" stroke-miterlimit="10" width="200" height="50"/>
<rect x="410" y="310" fill="#E4E4E4" stroke="#6F6F6F" stroke-miterlimit="10" width="200" height="50"/>
<rect x="410" y="360" fill="#F8F8F7" stroke="#6F6F6F" stroke-miterlimit="10" width="200" height="50"/>
<rect x="410" y="410" fill="#E4E4E4" stroke="#6F6F6F" stroke-miterlimit="10" width="200" height="50"/>
<rect x="410" y="460" fill="#F8F8F7" stroke="#6F6F6F" stroke-miterlimit="10" width="200" height="50"/>
<rect x="610" y="10" fill="#E4E4E4" stroke="#6F6F6F" stroke-miterlimit="10" width="200" height="50"/>
<rect x="610" y="60" fill="#F8F8F7" stroke="#6F6F6F" stroke-miterlimit="10" width="200" height="50"/>
<rect x="610" y="110" fill="#E4E4E4" stroke="#6F6F6F" stroke-miterlimit="10" width="200" height="50"/>
<rect x="610" y="160" fill="#F8F8F7" stroke="#6F6F6F" stroke-miterlimit="10" width="200" height="50"/>
<rect x="610" y="210" fill="#E4E4E4" stroke="#6F6F6F" stroke-miterlimit="10" width="200" height="50"/>
<rect x="610" y="260" fill="#F8F8F7" stroke="#6F6F6F" stroke-miterlimit="10" width="200" height="50"/>
<rect x="610" y="310" fill="#E4E4E4" stroke="#6F6F6F" stroke-miterlimit="10" width="200" height="50"/>
<rect x="610" y="360" fill="#F8F8F7" stroke="#6F6F6F" stroke-miterlimit="10" width="200" height="50"/>
<rect x="610" y="410" fill="#E4E4E4" stroke="#6F6F6F" stroke-miterlimit="10" width="200" height="50"/>
<rect x="610" y="460" fill="#F8F8F7" stroke="#6F6F6F" stroke-miterlimit="10" width="200" height="50"/>
<rect x="810" y="10" fill="#E4E4E4" stroke="#6F6F6F" stroke-miterlimit="10" width="200" height="50"/>
<rect x="810" y="60" fill="#F8F8F7" stroke="#6F6F6F" stroke-miterlimit="10" width="200" height="50"/>
<rect x="810" y="110" fill="#E4E4E4" stroke="#6F6F6F" stroke-miterlimit="10" width="200" height="50"/>
<rect x="810" y="160" fill="#F8F8F7" stroke="#6F6F6F" stroke-miterlimit="10" width="200" height="50"/>
<rect x="810" y="210" fill="#E4E4E4" stroke="#6F6F6F" stroke-miterlimit="10" width="200" height="50"/>
<rect x="810" y="260" fill="#F8F8F7" stroke="#6F6F6F" stroke-miterlimit="10" width="200" height="50"/>
<rect x="810" y="310" fill="#E4E4E4" stroke="#6F6F6F" stroke-miterlimit="10" width="200" height="50"/>
<rect x="810" y="360" fill="#F8F8F7" stroke="#6F6F6F" stroke-miterlimit="10" width="200" height="50"/>
<rect x="810" y="410" fill="#E4E4E4" stroke="#6F6F6F" stroke-miterlimit="10" width="200" height="50"/>
<rect x="810" y="460" fill="#F8F8F7" stroke="#6F6F6F" stroke-miterlimit="10" width="200" height="50"/>
</svg>
